<?xml version="1.0" encoding="utf-8"?>
<!-- Generator: Adobe Illustrator 19.2.1, SVG Export Plug-In . SVG Version: 6.00 Build 0)  -->
<svg version="1.1" id="Calque_1" xmlns="http://www.w3.org/2000/svg" xmlns:xlink="http://www.w3.org/1999/xlink" x="0px" y="0px"
	 viewBox="0 0 312 117.3" style="enable-background:new 0 0 312 117.3;" xml:space="preserve">
<style type="text/css">
	.st0{fill:#FFFFFF;}
	.st1{fill:#FFFFFF;stroke:#FFFFFF;stroke-miterlimit:10;}
</style>
<path class="st0" d="M5.1,30.5c2.5-2.4,3.8-5.7,3.7-9.2c0-6.1,0.1-10.3,0.1-16.4c0-1.7,0-2.2-0.3-2.4s-1.3-0.5-3-0.7V0.5
	c1.6,0,4,0.1,4.9,0.1c1.1,0,3.3,0,4.7-0.1v1.4c-1.8,0.2-2.6,0.4-2.9,0.7s-0.3,0.7-0.3,2.2v15.5c0.1,2.1-0.3,4.2-1.2,6.1
	c-1.2,2-2.7,3.8-4.6,5.2L5.1,30.5z M34.4,24.4c-0.3,0.9-0.9,1-2.4,1H17v-1.4c1.5-0.1,2.6-0.3,2.9-0.6s0.3-0.9,0.3-2.3V4.7
	c0.1-0.7,0-1.4-0.2-2c-0.3-0.4-1-0.5-3-0.7V0.6h14.2c1.9,0,2.1,0.3,2.2,1.1c0.2,1.6,0.2,3.2,0.2,4.8l-1.3,0.1
	c-0.4-2.1-0.8-3.2-1.3-3.6c-0.7-0.6-1.8-0.7-4.8-0.7c-1,0-2.1,0-3,0.1v9.2h0.4c3.8,0,4.8-0.1,5.5-0.7c0.4-0.7,0.7-1.6,0.7-2.4h1.4
	v8.1h-1.3c-0.1-0.9-0.3-1.8-0.8-2.6c-0.6-0.6-2-0.6-5.5-0.6h-0.3v8.5c0,1,0.3,1.4,1,1.5c0.9,0.2,1.9,0.3,2.9,0.3
	c3.4,0,4.6-0.4,5.1-1c0.8-1.2,1.4-2.5,1.8-3.9l1.2,0.3C35.2,20.8,34.9,22.7,34.4,24.4z M40.6,25.3c-0.9,0-2.6,0-4.3,0.1V24
	c0.8,0,1.6-0.2,2.2-0.7c0.6-0.5,1-1.4,1.9-3.9l7-19h2l6.4,19.2c0.8,2.4,1.1,3.3,1.7,3.8c0.3,0.3,1,0.4,2.3,0.5v1.4
	c-1.8,0-3.3-0.1-4.2-0.1s-3.4,0-5.4,0.1V24c2.7-0.2,3.2-0.5,3.2-1.3c-0.1-1.1-0.4-2.2-0.8-3.3l-1-3.2h-7.7l-1.1,3.1
	c-0.5,1.1-0.8,2.2-0.9,3.4c0,0.7,0.6,1,3.7,1.2v1.4C43.6,25.4,41.4,25.3,40.6,25.3z M50.9,14.6c-1.9-5.8-2.6-7.9-3.2-9.9
	c-0.6,2-1.3,4.1-3.4,9.9C44.3,14.6,50.9,14.6,50.9,14.6z M64.9,25.3c-0.8,0-2.4,0-4.4,0.1V24c2.3-0.1,2.9-0.4,3.1-0.7
	s0.2-1.1,0.2-3.1c0-4,0.1-14.2,0.1-14.5c0.1-0.9,0-1.9-0.2-2.8c-0.2-0.4-0.7-0.7-1.2-0.8c-0.7-0.1-1.3-0.2-2-0.3V0.5
	c0.8,0,2.8,0.1,3.4,0.1s1.6,0,2.9-0.1C71,6.7,75.6,13.2,80,19.4c0-4.9-0.2-12.2-0.2-13.7c0-2-0.1-2.7-0.3-3.1s-0.7-0.5-3-0.7V0.5
	c2,0,3.6,0.1,4.4,0.1c1,0,2.6,0,4.5-0.1v1.4c-2.2,0.2-2.7,0.3-3,0.7S82,3.5,82,5.7v13.2c0,1.8,0.1,5.1,0.1,6.5h-1.8
	c-1-1.5-3.9-5.9-14.4-20.6c0,5,0.2,14.4,0.2,15.5c0,2.2,0,2.8,0.3,3.1s1,0.5,3.2,0.7v1.4C67.5,25.4,66,25.3,64.9,25.3z M94.5,17.9
	h-7.3v-2.5h7.3V17.9z M116.9,23.5c-0.2,0.7-0.7,1.2-1.3,1.5c-2,0.7-4.2,1-6.3,0.9c-7,0-12-4.4-12-12.5c0-8.4,5.2-13.4,12.9-13.4
	c2,0,4,0.3,5.9,0.9c0.6,0.2,1,0.6,1.2,1.2c0.2,1.7,0.3,3.5,0.3,5.2l-1.3,0.1c-0.2-1.2-0.5-2.4-1-3.6c-0.2-0.5-0.6-0.8-1.1-1.1
	c-1.3-0.6-2.7-0.8-4.1-0.8c-5.6,0-9.4,3.9-9.4,11.1c0,6.8,3.6,10.9,9.2,10.9c1.3,0,2.5-0.2,3.7-0.6c0.5-0.2,1-0.6,1.4-1
	c0.8-1.2,1.4-2.5,1.8-3.9l1.4,0.3C117.8,20.4,117.4,22,116.9,23.5z M125.7,25.3c-0.8,0-3.2,0-4.8,0.1V24c2-0.1,2.7-0.3,3-0.6
	s0.3-0.6,0.3-2.3V4.8c0-1.4,0-1.9-0.3-2.2s-0.7-0.4-3-0.7V0.5c1.6,0,3.9,0.1,4.8,0.1s3.3,0,4.9-0.1v1.4c-2.4,0.2-2.9,0.4-3.2,0.7
	c-0.2,0.7-0.3,1.4-0.2,2.1v6.7h12.1V4.8c0.1-0.7,0-1.5-0.2-2.2c-0.2-0.3-0.8-0.4-3-0.7V0.5c1.7,0,3.9,0.1,4.8,0.1s3.3,0,4.8-0.1v1.4
	c-2.4,0.2-2.9,0.4-3.2,0.7c-0.2,0.7-0.3,1.4-0.2,2.1v16.5c0,1.7,0.1,2,0.3,2.2s1.1,0.5,3.1,0.7v1.4c-1.5,0-3.9-0.1-4.8-0.1
	s-3.2,0-4.8,0.1v-1.4c2.1-0.1,2.7-0.3,3-0.6s0.3-0.6,0.3-2.3v-7.8h-12.2v7.8c0,1.7,0,2,0.2,2.2s1.1,0.5,3.2,0.7v1.4
	C129,25.4,126.6,25.3,125.7,25.3z M152.4,25.3c-0.9,0-2.4,0-4.4,0.1V24c2.2-0.1,2.8-0.4,3-0.7c0.2-0.7,0.3-1.4,0.3-2.2V4.7
	c0-1.5,0-1.8-0.2-2.1s-0.9-0.5-3-0.7V0.5h5.4c2.3-0.1,4.6,0.1,6.9,0.4c3.2,0.4,5.6,3.3,5.4,6.5c0,2.9-1.9,5.5-4.7,6.3
	c1.3,2.7,2.9,5.2,4.7,7.6c1,1.4,2.3,2.7,3.7,3.7l-0.7,1.2c-1.8-0.6-3.5-1.6-4.8-3c-1.7-1.6-3.4-3.9-6.2-8.9
	c-0.6,0.1-1.1,0.1-1.7,0.1c-0.7,0-1.3,0-1.8-0.1v6.6c-0.1,0.7,0,1.5,0.2,2.2c0.3,0.4,0.6,0.6,3.2,0.8v1.4
	C155.8,25.4,153.4,25.3,152.4,25.3L152.4,25.3z M156.3,12.8c4.3,0,6.1-2.2,6.1-5.2c0-2.5-1.1-4.1-2.9-4.8c-1.7-0.5-3.4-0.7-5.2-0.7
	v10.5C154.9,12.8,155.9,12.8,156.3,12.8z M175.2,25.3c-0.9,0-3.2,0-4.8,0.1V24c2-0.1,2.7-0.3,3-0.6s0.3-0.6,0.3-2.3V4.8
	c0.1-0.7,0-1.5-0.3-2.2c-0.2-0.3-0.7-0.5-3-0.7V0.5c1.6,0,4,0.1,4.8,0.1s3.2,0,4.8-0.1v1.4c-2.4,0.2-2.8,0.4-3.1,0.7
	c-0.2,0.7-0.3,1.4-0.2,2.1v16.4c0,1.7,0.1,2,0.3,2.2s1,0.5,3,0.7v1.4C178.4,25.4,176.1,25.3,175.2,25.3L175.2,25.3z M185.5,22.6
	c1.2,1.1,2.8,1.7,4.4,1.5c3,0,4.8-1.9,4.8-3.9s-0.5-3.2-4.3-5.4l-2-1.2c-4.1-2.4-4.9-4.3-4.9-7.1c0-4.2,3.6-6.6,8.1-6.6
	c1.5-0.1,2.9,0.1,4.3,0.6c0.6,0.2,1,0.8,1,1.4c0.2,1.6,0.2,3.2,0.2,4.8l-1.4,0.1c-0.2-1.3-0.5-2.5-1.1-3.6c-0.6-1-1.6-1.4-3.8-1.4
	c-2.7,0-4.7,1.5-4.7,3.9c0,2,0.9,3.1,3.7,4.8l2.1,1.3c4.4,2.7,5.6,4.2,5.6,7.2c0,4-3.1,6.9-8,6.9c-1.8,0-3.6-0.3-5.2-0.9
	c-0.9-0.3-1.4-1.1-1.3-2c-0.1-1.3-0.2-3.4-0.3-4.4l1.5-0.1C184.4,19.9,184.8,21.3,185.5,22.6L185.5,22.6z M209.7,25.3
	c-1,0-3.7,0-5.1,0.1V24c2.2-0.1,2.9-0.4,3.2-0.8c0.2-0.8,0.3-1.6,0.2-2.4V2.3c-3.1,0-4.9,0.1-5.6,0.5s-1,1.3-1.7,4.4l-1.3-0.1
	c0-2.1,0.1-4.2,0.3-5.5c-0.1-0.5,0.4-1,0.9-1.1c0.1,0,0.2,0,0.3,0h17.4c0.9,0,1,0.2,1.1,1.1c0.1,1,0.2,3.7,0.2,5.4l-1.3,0.1
	c-0.4-2.2-0.7-3.5-1.3-4s-1.9-0.8-6-0.9v18.6c-0.1,0.8,0,1.6,0.2,2.4c0.2,0.5,1.3,0.6,3.3,0.8v1.4C213.1,25.4,210.6,25.3,209.7,25.3
	L209.7,25.3z M232.2,25.9c-7.4,0-11.5-5.5-11.5-13c0-7.6,4.9-13,11.5-13c7.3,0,11.3,4.9,11.3,12.9C243.5,20.6,238.8,25.9,232.2,25.9
	L232.2,25.9z M232,1.9c-4.9,0-8.2,3.9-8.2,10.5c0,7.5,3.4,11.5,8.4,11.5c4.9,0,8.1-3.9,8.1-10.6C240.4,6.4,237.1,2,232,1.9L232,1.9z
	 M251.5,25.3c-1.3,0-3.1,0-5.2,0.1V24c0.9,0,1.7-0.2,2.6-0.4c0.6-0.3,0.7-0.4,0.7-2.3V4.5c0-1.6-0.1-1.8-0.4-2s-0.8-0.4-2.9-0.6V0.6
	h6.5c2.1-0.1,4.1,0.1,6.2,0.3c3.6,0.7,5.6,3.1,5.6,6.9c0,4.8-3.3,7.4-9.1,7.4c-1,0-2,0-3-0.1v6.1c0,1.4,0,1.9,0.4,2.2
	s1.2,0.4,3.4,0.6v1.4C254.4,25.4,252.3,25.3,251.5,25.3L251.5,25.3z M255,13.3c4,0,6.4-1.5,6.4-5.3c0-2.7-0.9-4.5-3.4-5.2
	c-1.8-0.4-3.6-0.6-5.5-0.5v11C253.4,13.3,254.4,13.3,255,13.3L255,13.3z M271.4,25.3c-0.9,0-3.2,0-4.8,0.1V24c2-0.1,2.7-0.3,3-0.6
	s0.3-0.6,0.3-2.3V4.8c0-1.4,0-1.9-0.3-2.2s-0.7-0.4-3-0.7V0.5c1.6,0,3.9,0.1,4.8,0.1s3.3,0,4.9-0.1v1.4c-2.4,0.2-2.9,0.4-3.2,0.7
	c-0.2,0.7-0.3,1.4-0.2,2.1v6.7H285V4.8c0.1-0.7,0-1.5-0.2-2.2c-0.2-0.3-0.8-0.4-3-0.7V0.5c1.7,0,3.9,0.1,4.8,0.1s3.3,0,4.8-0.1v1.4
	c-2.4,0.2-2.9,0.4-3.2,0.7C288,3.3,287.9,4,288,4.7v16.5c0,1.7,0.1,2,0.3,2.2s1.1,0.5,3.1,0.7v1.4c-1.5,0-3.9-0.1-4.8-0.1
	s-3.2,0-4.8,0.1v-1.4c2.1-0.1,2.7-0.3,3-0.6s0.3-0.6,0.3-2.3v-7.8h-12.2v7.8c0,1.7,0,2,0.2,2.2s1.1,0.5,3.2,0.7v1.4
	C274.6,25.4,272.3,25.3,271.4,25.3L271.4,25.3z M311,24.4c-0.3,0.9-0.9,1-2.4,1h-15v-1.4c1.5-0.1,2.6-0.3,2.9-0.6s0.3-0.9,0.3-2.3
	V4.7c0.1-0.7,0-1.4-0.2-2c-0.3-0.4-1-0.5-3-0.7V0.6h14.2c1.9,0,2.1,0.3,2.2,1.1c0.2,1.6,0.2,3.2,0.2,4.8L309,6.5
	c-0.4-2.1-0.8-3.2-1.3-3.6c-0.7-0.6-1.8-0.7-4.8-0.7c-1,0-2.1,0-3,0.1v9.2h0.4c3.8,0,4.8-0.1,5.5-0.7c0.4-0.7,0.7-1.6,0.7-2.4h1.4
	v8.1h-1.3c-0.1-0.9-0.3-1.8-0.8-2.6c-0.6-0.6-2-0.6-5.5-0.6h-0.4v8.5c0,1,0.3,1.4,1,1.5c0.9,0.2,1.9,0.3,2.9,0.3
	c3.4,0,4.6-0.4,5.1-1c0.8-1.2,1.4-2.5,1.9-3.9L312,19C311.9,20.9,311.6,22.7,311,24.4L311,24.4z M9.7,115.1c-2,0-5.3,0.1-9.7,0.2
	v-3.1c4.9-0.3,6.3-0.9,6.8-1.6c0.3-0.6,0.4-1.8,0.4-4.9V69.1c0-3.4-0.1-4.1-0.4-4.7c-0.4-0.8-2.1-1.1-6.8-1.5v-3.1h12
	c7.1,0,11.8,0.3,15.4,1c7.7,1.5,12,6.4,12,14.5c0,6.2-3.6,11.5-10.4,14.1c4.4,8.4,7,12.7,10.5,16.9c2.3,3.2,5.1,6,8.3,8.3l-1.5,2.8
	c-4.1-1.3-7.8-3.6-10.8-6.6c-3.7-3.5-7.7-8.8-13.8-19.9C20.5,91,19.2,91,18,91c-1.5,0-2.9-0.1-4-0.2v14.8c0,3,0.2,4.3,0.5,4.8
	c0.6,0.8,1.4,1.4,7.1,1.7v3.1C17.5,115.2,12.1,115.1,9.7,115.1z M18.5,87.1C28,87.1,32,82.3,32,75.6c0-5.5-2.4-9.1-6.5-10.8
	c-3.4-1.3-8.4-1.4-11.6-1.4v23.4C15.4,87.1,17.6,87.2,18.5,87.1L18.5,87.1z M88.6,113c-0.7,1.9-2.1,2.2-5.3,2.2H49.9v-3
	c3.4-0.3,5.8-0.6,6.5-1.4s0.7-2,0.7-5.2V69.1c0-2.3,0-4-0.5-4.6c-0.7-0.9-2.2-1.2-6.7-1.6v-3h31.6c4.2,0,4.7,0.6,5,2.5
	c0.4,3.5,0.5,7.1,0.5,10.7l-2.9,0.2c-0.9-4.6-1.8-7.1-2.8-8c-1.6-1.3-4-1.5-10.8-1.5c-2.3,0-4.7,0.1-6.7,0.2v20.5h0.8
	c8.4,0,10.8-0.3,12.2-1.6c0.7-0.7,1.1-2.6,1.6-5.4h3.1c-0.1,2.1-0.1,6.4-0.1,8.8c0,1.4,0,5.9,0.1,9.4h-2.9c-0.6-3.2-1-5-1.7-5.8
	c-1.3-1.3-4.4-1.4-12.3-1.4h-0.8v18.9c0,2.2,0.6,3.1,2.2,3.4c2.1,0.4,4.2,0.6,6.4,0.6c7.7,0,10.3-0.9,11.4-2.2s2.5-4.6,4.1-8.7
	l2.8,0.6C90.4,104.7,89.6,110.3,88.6,113z M105.5,115.1c-1.7,0-5.3,0.1-9.8,0.2v-3.1c5.3-0.3,6.4-0.9,6.9-1.6s0.4-2.5,0.4-6.9
	c0-9,0.2-31.7,0.2-32.3c0-3.9-0.2-5.6-0.5-6.2c-0.5-1-1.5-1.6-2.6-1.7c-1.5-0.3-3-0.5-4.5-0.6v-3.1c1.8,0.1,6.2,0.2,7.5,0.2
	s3.5,0,6.4-0.2c9.6,13.8,19.8,28.1,29.8,42.1c-0.1-10.8-0.3-27.3-0.4-30.5c-0.1-4.5-0.2-6.1-0.7-7c-0.4-0.7-1.6-1.2-6.7-1.5v-3.1
	c4.4,0.1,7.9,0.2,9.7,0.2c2.3,0,5.7-0.1,10.1-0.2v3.1c-5,0.4-6,0.7-6.8,1.5s-0.9,2-0.9,7.1c0,8.6-0.1,19.6-0.1,29.3
	c0,4,0.2,11.4,0.2,14.4h-3.9c-2.3-3.3-8.7-13.3-32.2-45.9c0.1,11.2,0.3,32.1,0.3,34.5c0,5,0,6.3,0.6,7c0.7,0.9,2.2,1.1,7.1,1.5v3.1
	C111.1,115.2,107.9,115.1,105.5,115.1z M161.3,115.1c-2,0-5.9,0.1-9.6,0.2v-3.1c3.3-0.3,4.4-0.9,4.9-1.5c1.3-1.1,2.1-3.2,4.2-8.7
	l15.6-42.3h4.5l14.4,42.8c1.8,5.3,2.5,7.3,3.8,8.5c0.7,0.7,2.1,0.9,5.1,1.2v3.1c-4-0.1-7.4-0.2-9.5-0.2s-7.7,0.1-12.1,0.2v-3.1
	c6-0.5,7.1-1.2,7.1-2.8c0-1.5-0.8-4-1.9-7.3l-2.2-7.1h-17.2l-2.4,7c-1.6,4.7-2,6.2-2,7.6c0,1.6,1.4,2.2,8.2,2.7v3.1
	C168,115.2,163.2,115.1,161.3,115.1L161.3,115.1z M184.4,91.2c-4.3-12.9-5.9-17.6-7.1-22c-1.4,4.4-3,9.2-7.6,22H184.4z M251.2,64.7
	c-0.4,0.9-0.5,2.8-0.5,5.3v20.2c0,10.2-1.2,15.7-4.3,19.7c-3.5,4.4-8.8,6.6-16.5,6.6c-8.7,0-14.3-3.3-16.9-7.7
	c-2.1-3.4-2.8-7.4-2.8-18.8c0-7.2,0.2-15.3,0.2-20.8c0-2.8-0.2-3.9-0.5-4.5c-0.6-1-1.9-1.3-6.9-1.7v-3.1c3.3,0.1,9,0.2,11.4,0.2
	c2.1,0,7.2-0.1,10.4-0.2v3.1c-4.9,0.3-6.5,0.8-7.1,1.6c-0.5,0.6-0.7,2-0.7,4.4c-0.1,6.3-0.1,13.3-0.1,20.8c0,6.6,0.3,11.2,1.3,14.3
	c1.6,4.7,5.3,7.8,13.3,7.8c5.9,0,10.5-2.6,12.4-5.9c2.2-3.8,2.5-10.2,2.5-17.6c0-2.3-0.2-9.7-0.4-18.9c-0.1-2.9-0.3-4.6-1.1-5.2
	c-1.1-0.8-2.8-0.8-6.4-1.2v-3.1c3,0.1,7.6,0.1,9.6,0.1s7.1-0.1,9.9-0.1v3.1C252.8,63.4,251.5,63.8,251.2,64.7L251.2,64.7z
	 M298.6,115.1c-2.4,0-5.9,0.1-10.6,0.2v-3.1c5.1-0.3,6.5-0.9,6.5-2.4c0-0.9-1-2.5-2-4l-9.5-15.1l-9.1,14.7c-1.3,2.1-1.9,3.3-1.9,4.4
	c0,1.6,1.5,2.1,6.8,2.4v3.1c-4.2-0.1-8.4-0.2-10.8-0.2c-2,0-5,0.1-9.5,0.2v-3c2.3-0.3,4.6-0.6,5.8-1.7c1.9-1.9,3.5-4.1,4.9-6.4
	l11.5-17.1l-11.3-17.5c-1.3-2.1-2.8-4.7-4.2-5.6c-1.4-0.7-3-1.1-4.6-1.1v-3.1c4.6,0.1,8.6,0.2,11.3,0.2c2.3,0,7.8-0.1,10.3-0.2v3.1
	c-5.7,0.3-6.5,1-6.5,2.2c0,0.9,0.3,2.1,2.2,5.2l7.7,12.2l7.2-11.3c1.5-2.2,2.8-4.9,2.8-6c0-1.3-0.4-2-6.4-2.3v-3.1
	c2.6,0.1,7.4,0.2,9.6,0.2c1.9,0,6.1-0.1,9-0.2v3.1c-2.4,0.2-3.5,0.5-4.5,1.2c-0.9,0.7-2.3,2.8-5.6,7.4l-10,14.3l11.5,18.2
	c2.6,4.1,3.8,5.6,4.9,6.6c0.9,0.9,2.2,1.4,5.7,1.6v3.1C304.7,115.2,301,115.1,298.6,115.1L298.6,115.1z"/>
<path class="st1" d="M117.3,42.5h83.4"/>
</svg>
