<svg xmlns="http://www.w3.org/2000/svg" id="Calque_1" data-name="Calque 1" viewBox="0 0 311.97 117.35">
                <defs>
                    <style>
                        .cls-1,.cls-2{fill:black;}.cls-2{stroke:black;stroke-miterlimit:10;}
                    </style>
                </defs>
                <path d="M5.12 30.55a12 12 0 0 0 3.7-9.18c0-6.14.08-10.26.08-16.36 0-1.66 0-2.16-.31-2.43s-1.31-.5-3-.66V.53c1.58 0 4 .08 4.86.08 1.08 0 3.32 0 4.67-.08v1.39c-1.81.23-2.55.35-2.86.69s-.31.73-.31 2.16v15.47a12.94 12.94 0 0 1-1.23 6.14 19.93 19.93 0 0 1-4.55 5.21zm29.29-6.13c-.31.85-.93 1-2.39 1h-15v-1.35c1.54-.15 2.62-.27 2.93-.62s.31-.89.31-2.31V4.74a4.1 4.1 0 0 0-.23-2c-.31-.39-1-.54-3-.73V.57h14.16c1.89 0 2.12.27 2.24 1.12a44.25 44.25 0 0 1 .23 4.78l-1.31.08c-.43-2.08-.81-3.16-1.27-3.59-.69-.58-1.81-.66-4.82-.66-1 0-2.12 0-3 .08v9.18h.35c3.78 0 4.82-.15 5.48-.73a5.72 5.72 0 0 0 .73-2.43h1.39v8.15H29.9a6.55 6.55 0 0 0-.77-2.58c-.58-.58-2-.62-5.52-.62h-.33v8.49c0 1 .27 1.39 1 1.54a15.15 15.15 0 0 0 2.86.27c3.43 0 4.63-.43 5.13-1a16.77 16.77 0 0 0 1.85-3.9l1.23.27a24.27 24.27 0 0 1-.94 5.4zm6.18.93c-.89 0-2.62 0-4.28.08v-1.39a3.62 3.62 0 0 0 2.2-.66c.58-.5 1-1.43 1.89-3.9l7-19h2l6.44 19.18c.81 2.39 1.12 3.28 1.7 3.82.31.31 1 .39 2.28.54v1.39c-1.77 0-3.32-.08-4.24-.08s-3.43 0-5.44.08v-1.39c2.7-.23 3.2-.54 3.2-1.27a13 13 0 0 0-.85-3.28l-1-3.16h-7.72l-1.08 3.13a10.78 10.78 0 0 0-.89 3.4c0 .73.62 1 3.66 1.2v1.39c-1.86-.05-4.02-.08-4.87-.08zm10.34-10.73c-1.93-5.79-2.62-7.91-3.2-9.88-.62 2-1.35 4.13-3.4 9.88h6.6zM64.9 25.35c-.77 0-2.39 0-4.4.08v-1.39c2.35-.12 2.86-.39 3.09-.73s.19-1.12.19-3.09c0-4.05.08-14.2.08-14.47a8 8 0 0 0-.23-2.78 1.49 1.49 0 0 0-1.16-.77 17.92 17.92 0 0 0-2-.27V.54c.81 0 2.78.08 3.36.08s1.58 0 2.86-.08c4.32 6.17 8.87 12.62 13.35 18.87 0-4.86-.16-12.23-.19-13.66 0-2-.08-2.74-.31-3.13s-.69-.54-3-.69V.54c2 0 3.55.08 4.36.08 1 0 2.55 0 4.51-.08v1.39c-2.24.19-2.7.31-3 .66s-.39.89-.39 3.16v13.16c0 1.77.08 5.09.08 6.48h-1.82c-1-1.47-3.9-5.94-14.43-20.6 0 5 .16 14.39.16 15.47 0 2.24 0 2.82.27 3.13s1 .5 3.16.66v1.39c-1.99-.06-3.46-.09-4.54-.09zm29.56-7.49h-7.33v-2.51h7.33v2.51zm22.42 5.67a2.34 2.34 0 0 1-1.35 1.47 18.41 18.41 0 0 1-6.29.93c-7 0-12-4.36-12-12.5C97.24 5.06 102.41 0 110.17 0a18.8 18.8 0 0 1 5.9.85 1.63 1.63 0 0 1 1.16 1.23 31.26 31.26 0 0 1 .27 5.21l-1.35.12a18.64 18.64 0 0 0-1-3.59 2.43 2.43 0 0 0-1.08-1.08 9.83 9.83 0 0 0-4.13-.77c-5.59 0-9.45 3.9-9.45 11.11 0 6.83 3.63 10.92 9.18 10.92a11.22 11.22 0 0 0 3.74-.58 4.19 4.19 0 0 0 1.39-1 17.44 17.44 0 0 0 1.81-3.86l1.39.27a21.73 21.73 0 0 1-1.12 4.7zm8.8 1.82c-.85 0-3.16 0-4.78.08v-1.39c2-.15 2.7-.31 3-.62s.27-.62.27-2.31V4.78c0-1.39 0-1.93-.27-2.2s-.73-.42-3-.66V.53c1.62 0 3.93.08 4.78.08s3.28 0 4.86-.08v1.39c-2.39.23-2.93.39-3.16.69a4.42 4.42 0 0 0-.23 2.12v6.71h12.13V4.77a4.62 4.62 0 0 0-.23-2.2c-.23-.31-.77-.42-3-.66V.52c1.66 0 3.93.08 4.82.08s3.28 0 4.82-.08v1.39c-2.39.23-2.89.39-3.16.69a4.43 4.43 0 0 0-.23 2.12v16.45c0 1.66.08 2 .27 2.24s1.12.5 3.13.66v1.39c-1.54 0-3.94-.08-4.82-.08s-3.16 0-4.82.08v-1.39c2.08-.15 2.74-.27 3-.58s.27-.62.27-2.32v-7.83h-12.18v7.83c0 1.66 0 2 .23 2.24s1.12.5 3.16.66v1.39c-1.58-.08-3.93-.11-4.86-.11zm26.67 0c-.89 0-2.35 0-4.36.08v-1.39c2.2-.15 2.82-.39 3-.69a5.63 5.63 0 0 0 .29-2.18V4.7c0-1.54 0-1.85-.19-2.08s-.93-.5-3-.69V.54h5.36a38.39 38.39 0 0 1 6.91.42 6.09 6.09 0 0 1 5.36 6.52 6.67 6.67 0 0 1-4.67 6.33 41.19 41.19 0 0 0 4.71 7.6 16.84 16.84 0 0 0 3.7 3.7l-.69 1.23a11.5 11.5 0 0 1-4.82-3c-1.66-1.58-3.43-3.94-6.17-8.91a15.88 15.88 0 0 1-1.66.08c-.66 0-1.31 0-1.77-.08v6.64a5 5 0 0 0 .23 2.16c.27.35.62.62 3.2.77v1.39c-1.96-.01-4.35-.04-5.43-.04zm3.93-12.54c4.25 0 6.06-2.16 6.06-5.17 0-2.47-1.08-4.09-2.89-4.82a16.31 16.31 0 0 0-5.17-.65v10.49c.62.11 1.62.15 2 .15zm18.92 12.54c-.85 0-3.2 0-4.82.08v-1.39c2-.15 2.7-.31 3-.62s.27-.62.27-2.31V4.78a4.42 4.42 0 0 0-.27-2.2c-.23-.31-.73-.46-3-.66V.53c1.62 0 4 .08 4.82.08s3.16 0 4.75-.08v1.39c-2.39.23-2.82.39-3.09.69a4.42 4.42 0 0 0-.23 2.12v16.44c0 1.66.08 2 .27 2.24s1 .5 3 .66v1.39c-1.54-.08-3.77-.11-4.7-.11zm10.34-2.78a5.68 5.68 0 0 0 4.36 1.54c3 0 4.82-1.85 4.82-3.86s-.46-3.24-4.32-5.44l-2-1.16c-4.05-2.35-4.94-4.32-4.94-7.06 0-4.21 3.55-6.56 8.06-6.6a11.9 11.9 0 0 1 4.32.62 1.38 1.38 0 0 1 1 1.39 40.76 40.76 0 0 1 .23 4.82l-1.35.08a12.4 12.4 0 0 0-1.08-3.63c-.58-1-1.58-1.43-3.82-1.43-2.7 0-4.67 1.47-4.67 3.94 0 2 .85 3.13 3.67 4.82l2.12 1.27c4.36 2.7 5.63 4.17 5.63 7.18 0 4-3.13 6.91-8 6.91a13.5 13.5 0 0 1-5.21-.93 1.91 1.91 0 0 1-1.31-2c-.15-1.27-.23-3.4-.27-4.44l1.47-.12a11.05 11.05 0 0 0 1.29 4.1zm24.2 2.78c-1 0-3.7 0-5.13.08v-1.39c2.24-.15 2.93-.35 3.16-.77a7 7 0 0 0 .19-2.35V2.27c-3.09 0-4.9.12-5.56.54s-1 1.35-1.66 4.4l-1.31-.08c0-2.12.15-4.24.27-5.48a1 1 0 0 1 1.16-1.08h17.42c.85 0 1 .23 1.12 1.12.12 1 .16 3.74.16 5.4l-1.28.08c-.42-2.16-.73-3.47-1.31-4s-1.89-.85-6-.89v18.6a6.19 6.19 0 0 0 .19 2.39c.23.46 1.31.58 3.32.77v1.39c-1.38-.05-3.89-.08-4.74-.08zm22.42.57c-7.41 0-11.5-5.48-11.5-13 0-7.64 4.94-13 11.54-13 7.25 0 11.31 4.9 11.31 12.85 0 7.79-4.71 13.15-11.35 13.15zm-.12-24c-4.9 0-8.18 3.94-8.18 10.53 0 7.52 3.36 11.5 8.45 11.5 4.86 0 8.06-3.9 8.06-10.61.01-6.9-3.27-11.38-8.32-11.38zm19.42 23.43c-1.27 0-3.13 0-5.21.08v-1.39a11.3 11.3 0 0 0 2.55-.42c.62-.27.69-.39.69-2.28V4.55c0-1.58-.12-1.78-.35-2s-.77-.42-2.89-.58V.58h6.52a35.45 35.45 0 0 1 6.17.35c3.63.73 5.63 3.09 5.63 6.87 0 4.82-3.28 7.37-9.11 7.37a24.93 24.93 0 0 1-3-.12v6.12c0 1.39 0 1.93.35 2.24s1.2.43 3.36.62v1.39c-1.82-.04-3.89-.07-4.71-.07zm3.51-12c4 0 6.37-1.47 6.37-5.32 0-2.66-.93-4.51-3.36-5.21a20.61 20.61 0 0 0-5.48-.5v11c.85.03 1.89.03 2.47.03zm16.4 12c-.85 0-3.16 0-4.78.08v-1.39c2-.15 2.7-.31 3-.62s.27-.62.27-2.31V4.78c0-1.39 0-1.93-.27-2.2s-.73-.42-3-.66V.53c1.62 0 3.93.08 4.78.08s3.28 0 4.86-.08v1.39c-2.39.23-2.93.39-3.16.69a4.42 4.42 0 0 0-.23 2.12v6.71h12.15V4.77a4.62 4.62 0 0 0-.23-2.2c-.23-.31-.77-.42-3-.66V.52c1.66 0 3.93.08 4.82.08s3.28 0 4.82-.08v1.39c-2.39.23-2.89.39-3.16.69a4.43 4.43 0 0 0-.23 2.12v16.45c0 1.66.08 2 .27 2.24s1.12.5 3.13.66v1.39c-1.54 0-3.94-.08-4.82-.08s-3.16 0-4.82.08v-1.39c2.08-.15 2.74-.27 3-.58s.27-.62.27-2.32v-7.83h-12.2v7.83c0 1.66 0 2 .23 2.24s1.12.5 3.16.66v1.39c-1.58-.08-3.95-.11-4.86-.11zm39.67-.93c-.31.85-.93 1-2.39 1h-15v-1.35c1.54-.15 2.62-.27 2.93-.62s.31-.89.31-2.31V4.74a4.1 4.1 0 0 0-.23-2c-.31-.39-1-.54-3-.73V.57h14.16c1.89 0 2.12.27 2.24 1.12a44.25 44.25 0 0 1 .23 4.78l-1.31.08c-.43-2.08-.81-3.16-1.27-3.59-.69-.58-1.81-.66-4.82-.66-1 0-2.12 0-3 .08v9.18h.39c3.78 0 4.82-.15 5.48-.73a5.72 5.72 0 0 0 .73-2.43h1.39v8.15h-1.31a6.55 6.55 0 0 0-.77-2.58c-.58-.58-2-.62-5.52-.62h-.35v8.49c0 1 .27 1.39 1 1.54a15.15 15.15 0 0 0 2.86.27c3.43 0 4.63-.43 5.13-1a16.77 16.77 0 0 0 1.85-3.9l1.23.27a24.27 24.27 0 0 1-.96 5.4zM9.72 115.11c-2 0-5.25.09-9.72.17v-3.11c4.9-.34 6.28-.86 6.8-1.55.34-.6.43-1.81.43-4.9V69.08c0-3.44-.09-4.13-.43-4.65-.43-.77-2.07-1.12-6.8-1.55v-3.1h12c7.14 0 11.78.26 15.4.95 7.66 1.46 12 6.45 12 14.54 0 6.19-3.61 11.53-10.41 14.11 4.39 8.43 7.05 12.73 10.5 16.95a37.52 37.52 0 0 0 8.26 8.26l-1.55 2.75a25.66 25.66 0 0 1-10.75-6.62c-3.7-3.53-7.66-8.78-13.76-19.87a35.3 35.3 0 0 1-3.7.17c-1.46 0-2.92-.09-4-.17v14.8c0 3 .17 4.3.52 4.82.6.77 1.38 1.38 7.14 1.72v3.1c-4.19-.12-9.52-.18-11.93-.18zm8.77-28c9.46 0 13.51-4.82 13.51-11.53 0-5.51-2.41-9.12-6.45-10.75-3.35-1.29-8.43-1.38-11.61-1.38v23.4c1.45.21 3.69.32 4.55.32zm70.11 25.93c-.69 1.89-2.06 2.15-5.33 2.15H49.89v-3c3.44-.34 5.85-.6 6.54-1.38s.69-2 .69-5.16V69.08c0-2.32 0-4-.52-4.56-.69-.86-2.24-1.2-6.71-1.63v-3h31.57c4.22 0 4.73.6 5 2.5a98.39 98.39 0 0 1 .52 10.67l-2.92.17c-.95-4.64-1.81-7.05-2.84-8-1.55-1.29-4-1.46-10.75-1.46-2.32 0-4.73.09-6.71.17v20.47h.77c8.43 0 10.75-.35 12.21-1.64.69-.69 1.12-2.58 1.64-5.42h3.1c-.09 2.06-.09 6.45-.09 8.77 0 1.38 0 5.94.09 9.38h-2.92c-.6-3.18-1-5-1.72-5.76-1.29-1.29-4.39-1.37-12.3-1.37h-.77v18.92c0 2.24.6 3.1 2.24 3.44a33.8 33.8 0 0 0 6.36.6c7.66 0 10.32-.95 11.44-2.15s2.49-4.56 4.13-8.69l2.75.6c-.28 3.61-1.06 9.2-2.09 11.95zm16.86 2.07c-1.72 0-5.33.09-9.81.17v-3.11c5.25-.26 6.36-.86 6.88-1.63s.43-2.5.43-6.88c0-9 .17-31.66.17-32.26 0-3.87-.17-5.59-.52-6.19a3.34 3.34 0 0 0-2.58-1.72 39.89 39.89 0 0 0-4.47-.6v-3.1c1.81.09 6.19.17 7.48.17s3.53 0 6.37-.17c9.63 13.76 19.79 28.13 29.76 42.07-.09-10.84-.34-27.27-.43-30.45-.09-4.47-.17-6.11-.69-7-.43-.69-1.55-1.2-6.71-1.55v-3.1c4.39.09 7.91.17 9.72.17 2.32 0 5.68-.09 10.06-.17v3.1c-5 .43-6 .69-6.8 1.46s-.86 2-.86 7.05c0 8.6-.09 19.61-.09 29.33 0 4 .17 11.36.17 14.45h-3.87c-2.32-3.27-8.69-13.25-32.17-45.94.09 11.18.35 32.09.35 34.5 0 5 0 6.28.6 7 .69.86 2.15 1.12 7.05 1.46v3.1c-4.36-.1-7.63-.16-10.04-.16zm55.82 0c-2 0-5.85.09-9.55.17v-3.11c3.27-.34 4.39-.95 4.9-1.46 1.29-1.12 2.15-3.18 4.22-8.69l15.57-42.32h4.47l14.39 42.76c1.81 5.33 2.5 7.31 3.79 8.52.69.69 2.15.86 5.07 1.2v3.1c-4-.09-7.4-.17-9.46-.17s-7.66.09-12.13.17v-3.11c6-.52 7.14-1.2 7.14-2.84 0-1.46-.77-4-1.89-7.31l-2.24-7.05h-17.21l-2.41 7c-1.64 4.65-2 6.19-2 7.57 0 1.63 1.38 2.15 8.17 2.67v3.1c-4.11-.14-8.92-.2-10.83-.2zm23.07-23.94c-4.3-12.9-5.85-17.64-7.14-22-1.38 4.39-3 9.2-7.57 22h14.71zm66.84-26.47c-.43.86-.52 2.75-.52 5.25v20.22c0 10.24-1.2 15.74-4.3 19.7-3.53 4.39-8.78 6.62-16.52 6.62-8.69 0-14.28-3.35-16.86-7.74-2.06-3.44-2.84-7.4-2.84-18.84 0-7.23.17-15.31.17-20.82 0-2.75-.17-3.87-.52-4.47-.6-1-1.89-1.29-6.88-1.72v-3.1c3.27.09 9 .17 11.44.17 2.15 0 7.23-.09 10.41-.17v3.1c-4.9.34-6.54.77-7.14 1.55-.52.6-.69 2-.69 4.39-.09 6.28-.09 13.33-.09 20.82 0 6.62.26 11.18 1.29 14.28 1.63 4.73 5.33 7.83 13.33 7.83 5.85 0 10.5-2.58 12.39-5.94 2.24-3.79 2.5-10.24 2.5-17.64 0-2.32-.17-9.72-.43-18.92-.09-2.92-.26-4.56-1.12-5.16-1.12-.77-2.84-.77-6.45-1.2v-3.1c3 .09 7.57.09 9.55.09s7.05-.09 9.89-.09v3.1c-4.98.5-6.27.93-6.61 1.79zm47.4 50.41c-2.41 0-5.94.09-10.58.17v-3.11c5.08-.34 6.45-.86 6.45-2.41 0-.95-1-2.5-2-4l-9.55-15.05-9.12 14.71c-1.29 2.06-1.89 3.27-1.89 4.39 0 1.63 1.46 2.07 6.8 2.41v3.1c-4.22-.09-8.43-.17-10.75-.17-2 0-5 .09-9.55.17v-3c2.32-.26 4.56-.6 5.76-1.72a36.7 36.7 0 0 0 4.9-6.37l11.53-17.12-11.31-17.51c-1.29-2.07-2.84-4.73-4.22-5.59a9.6 9.6 0 0 0-4.56-1.12v-3.1c4.64.09 8.6.17 11.27.17 2.32 0 7.83-.09 10.32-.17v3.1c-5.68.34-6.54.95-6.54 2.24 0 .95.26 2.06 2.24 5.16l7.66 12.22 7.23-11.27c1.46-2.24 2.75-4.9 2.75-6 0-1.29-.43-2-6.36-2.32v-3.1c2.58.09 7.4.17 9.63.17 1.89 0 6.11-.09 9-.17v3.1c-2.41.17-3.53.52-4.47 1.2s-2.32 2.75-5.59 7.4l-10 14.28 11.53 18.15c2.58 4.13 3.79 5.59 4.9 6.62.86.86 2.24 1.38 5.68 1.63v3.1c-5.05-.13-8.75-.19-11.16-.19z" class="cls-1"/>
                <path d="M117.32 42.5h83.37" class="cls-2"/>
            </svg>